<svg width="50" height="50" viewBox="0 0 50 50" fill="none" xmlns="http://www.w3.org/2000/svg">
<g clip-path="url(#clip0_23_33)">
<path d="M25 2.5C12.5 2.5 2.5 12.5 2.5 25C2.5 37.5 12.5 47.5 25 47.5C37.5 47.5 47.5 37.5 47.5 25C47.5 12.5 37.5 2.5 25 2.5ZM25 42.5C15.25 42.5 7.5 34.75 7.5 25C7.5 15.25 15.25 7.5 25 7.5C34.75 7.5 42.5 15.25 42.5 25C42.5 34.75 34.75 42.5 25 42.5ZM27.5 15H22.5V22.5H15V27.5H22.5V35H27.5V27.5H35V22.5H27.5V15Z" fill="#24FFD0"/>
</g>
<defs>
<clipPath id="clip0_23_33">
<rect width="50" height="50" fill="white"/>
</clipPath>
</defs>
</svg>
