<svg width="48" height="48" viewBox="0 0 48 48" fill="none" xmlns="http://www.w3.org/2000/svg">
<g id="Interface / Trash_Full">
<path id="Vector" d="M28 20V34M20 20V34M12 12V35.6C12 37.8402 12 38.9595 12.436 39.8152C12.8195 40.5678 13.4309 41.181 14.1836 41.5645C15.0384 42 16.158 42 18.3938 42H29.6062C31.842 42 32.96 42 33.8148 41.5645C34.5674 41.181 35.181 40.5678 35.5645 39.8152C36 38.9604 36 37.842 36 35.6062V12M12 12H16M12 12H8M16 12H32M16 12C16 10.1362 16 9.20481 16.3045 8.46973C16.7105 7.48961 17.4886 6.71046 18.4688 6.30448C19.2038 6 20.1362 6 22 6H26C27.8638 6 28.7956 6 29.5307 6.30448C30.5108 6.71046 31.2893 7.48961 31.6953 8.46973C31.9998 9.20481 32 10.1362 32 12M32 12H36M36 12H40" stroke="#FF8A24" stroke-width="4" stroke-linecap="round" stroke-linejoin="round"/>
</g>
</svg>
