<svg width="128" height="128" viewBox="0 0 128 128" fill="none" xmlns="http://www.w3.org/2000/svg">
<g id="File / File_Download">
<path id="Vector" d="M64 64V96M64 96L80 85.3333M64 96L48 85.3333M69.3333 16.0046C68.824 16 68.2522 16 67.5985 16H43.7344C37.7605 16 34.7713 16 32.4896 17.1626C30.4825 18.1852 28.8519 19.8159 27.8293 21.8229C26.6667 24.1046 26.6667 27.0938 26.6667 33.0677V94.9344C26.6667 100.908 26.6667 103.894 27.8293 106.175C28.8519 108.182 30.4825 109.816 32.4896 110.839C34.7691 112 37.7546 112 43.7169 112H84.2832C90.2454 112 93.2266 112 95.5061 110.839C97.5132 109.816 99.1492 108.182 100.172 106.175C101.333 103.896 101.333 100.915 101.333 94.9524V49.737C101.333 49.0825 101.333 48.5099 101.328 48M69.3333 16.0046C70.8567 16.0185 71.8205 16.0738 72.7405 16.2947C73.8289 16.556 74.8685 16.9881 75.8229 17.5729C76.899 18.2324 77.823 19.1564 79.6667 21L96.3359 37.6692C98.1807 39.5141 99.098 40.4339 99.7576 41.5104C100.342 42.4647 100.775 43.5054 101.036 44.5938C101.257 45.5134 101.314 46.4774 101.328 48M69.3333 16.0046V30.9333C69.3333 36.9072 69.3333 39.8921 70.4959 42.1738C71.5186 44.1809 73.1492 45.8159 75.1562 46.8385C77.4357 48 80.4213 48 86.3835 48H101.328M101.328 48H101.334" stroke="#FF8A24" stroke-width="10.6667" stroke-linecap="round" stroke-linejoin="round"/>
</g>
</svg>
