<svg width="48" height="48" viewBox="0 0 48 48" fill="none" xmlns="http://www.w3.org/2000/svg">
<g id="File / Folder">
<path id="Vector" d="M6 12V33.6C6 35.8402 6 36.9595 6.43597 37.8152C6.81947 38.5678 7.43095 39.181 8.18359 39.5645C9.0384 40 10.158 40 12.3938 40H35.6062C37.842 40 38.96 40 39.8148 39.5645C40.5674 39.181 41.181 38.5682 41.5645 37.8156C42.0004 36.9599 42.0004 35.8398 42.0004 33.5996L42.0004 18.3996C42.0004 16.1593 42.0004 15.0392 41.5645 14.1836C41.181 13.4309 40.5678 12.8195 39.8152 12.436C38.9595 12 37.8402 12 35.6 12H24M6 12H24M6 12C6 9.79086 7.79086 8 10 8H17.349C18.3274 8 18.8177 8 19.2781 8.11052C19.6862 8.20851 20.0757 8.37053 20.4336 8.58984C20.8371 8.83713 21.1836 9.18363 21.875 9.875L24 12" stroke="#24FFD0" stroke-width="4" stroke-linecap="round" stroke-linejoin="round"/>
</g>
</svg>
