<svg width="48" height="48" viewBox="0 0 48 48" fill="none" xmlns="http://www.w3.org/2000/svg">
<g id="Edit / Copy">
<path id="Vector" d="M18 18V12.4004C18 10.1602 18 9.03924 18.436 8.18359C18.8195 7.43095 19.4309 6.81947 20.1836 6.43597C21.0392 6 22.1602 6 24.4004 6H35.6004C37.8406 6 38.9601 6 39.8158 6.43597C40.5684 6.81947 41.181 7.43095 41.5645 8.18359C42.0004 9.03924 42.0004 10.1593 42.0004 12.3996V23.5996C42.0004 25.8398 42.0004 26.9599 41.5645 27.8156C41.181 28.5682 40.5678 29.181 39.8152 29.5645C38.9604 30 37.842 30 35.6062 30H30M18 18H12.4004C10.1602 18 9.03924 18 8.18359 18.436C7.43095 18.8195 6.81947 19.4309 6.43597 20.1836C6 21.0392 6 22.1602 6 24.4004V35.6004C6 37.8406 6 38.9601 6.43597 39.8158C6.81947 40.5684 7.43095 41.181 8.18359 41.5645C9.0384 42 10.158 42 12.3938 42H23.6071C25.8429 42 26.961 42 27.8158 41.5645C28.5684 41.181 29.181 40.5678 29.5645 39.8152C30 38.9604 30 37.842 30 35.6062V30M18 18H23.6004C25.8406 18 26.9601 18 27.8158 18.436C28.5684 18.8195 29.181 19.4309 29.5645 20.1836C30 21.0384 30 22.158 30 24.3939L30 30" stroke="#FF8A24" stroke-width="4" stroke-linecap="round" stroke-linejoin="round"/>
</g>
</svg>
