<svg width="128" height="128" viewBox="0 0 128 128" fill="none" xmlns="http://www.w3.org/2000/svg">
<g id="File / Note">
<path id="Vector" d="M69.3333 106.662C68.8273 106.667 68.2594 106.667 67.6108 106.667H38.3835C32.4213 106.667 29.4358 106.667 27.1563 105.505C25.1492 104.482 23.5186 102.849 22.4959 100.842C21.3333 98.5602 21.3333 95.5749 21.3333 89.601V38.401C21.3333 32.4271 21.3333 29.4379 22.4959 27.1562C23.5186 25.1491 25.1492 23.5185 27.1563 22.4958C29.438 21.3333 32.4272 21.3333 38.4011 21.3333H89.6011C95.5749 21.3333 98.5577 21.3333 100.839 22.4958C102.847 23.5185 104.483 25.1491 105.505 27.1562C106.667 29.4357 106.667 32.4212 106.667 38.3834V67.5984C106.667 68.2522 106.667 68.8241 106.662 69.3333M69.3333 106.662C70.8568 106.648 71.8204 106.593 72.7405 106.372C73.8289 106.111 74.8686 105.678 75.8229 105.093C76.8994 104.434 77.8219 103.514 79.6667 101.669L101.669 79.6666C103.514 77.8218 104.431 76.8993 105.091 75.8228C105.676 74.8685 106.109 73.8262 106.37 72.7378C106.591 71.8179 106.647 70.8557 106.662 69.3333M69.3333 106.662V77.8671C69.3333 74.8802 69.3333 73.3856 69.9146 72.2447C70.426 71.2412 71.2413 70.4259 72.2448 69.9146C73.3857 69.3333 74.8776 69.3333 77.8646 69.3333H106.662" stroke="#FF8A24" stroke-width="10.6667" stroke-linecap="round" stroke-linejoin="round"/>
</g>
</svg>
