<svg width="128" height="128" viewBox="0 0 128 128" fill="none" xmlns="http://www.w3.org/2000/svg">
<g id="File / File_Document">
<path id="Vector" d="M48 90.6667H80M48 74.6667H80M69.3354 16.0046C68.8258 16 68.2527 16 67.5985 16H43.7344C37.7605 16 34.7713 16 32.4896 17.1626C30.4825 18.1853 28.8519 19.8159 27.8293 21.8229C26.6667 24.1046 26.6667 27.0938 26.6667 33.0677V94.9344C26.6667 100.908 26.6667 103.894 27.8293 106.175C28.8519 108.182 30.4825 109.816 32.4896 110.839C34.7691 112 37.7547 112 43.717 112L84.2832 112C90.2454 112 93.2266 112 95.5061 110.839C97.5132 109.816 99.1492 108.182 100.172 106.175C101.333 103.896 101.333 100.915 101.333 94.9524V49.737C101.333 49.0828 101.333 48.5095 101.328 48M69.3354 16.0046C70.8578 16.0185 71.8172 16.075 72.737 16.2958C73.8254 16.5571 74.8686 16.9881 75.8229 17.5729C76.899 18.2324 77.823 19.1563 79.6667 21L96.3359 37.6692C98.1808 39.5141 99.098 40.4339 99.7576 41.5104C100.342 42.4647 100.775 43.5054 101.036 44.5937C101.257 45.5135 101.314 46.4776 101.328 48M69.3354 16.0046L69.3334 30.9344C69.3334 36.9083 69.3334 39.8941 70.4959 42.1759C71.5186 44.1829 73.1492 45.8159 75.1563 46.8385C77.4358 48 80.4214 48 86.3836 48H101.328" stroke="#2D7EE1" stroke-width="10.6667" stroke-linecap="round" stroke-linejoin="round"/>
</g>
</svg>
