<?xml version="1.0" encoding="UTF-8"?>
<svg width="24px" height="24px" viewBox="0 0 24 24" version="1.1" xmlns="http://www.w3.org/2000/svg" xmlns:xlink="http://www.w3.org/1999/xlink">
    <title>Note Icon Light</title>
    <g id="Note-Icon" stroke="none" stroke-width="1" fill="none" fill-rule="evenodd">
        <path d="M19,3 L5,3 C3.9,3 3,3.9 3,5 L3,19 C3,20.1 3.9,21 5,21 L19,21 C20.1,21 21,20.1 21,19 L21,5 C21,3.9 20.1,3 19,3 Z M14,17 L7,17 C6.45,17 6,16.55 6,16 C6,15.45 6.45,15 7,15 L14,15 C14.55,15 15,15.45 15,16 C15,16.55 14.55,17 14,17 Z M17,13 L7,13 C6.45,13 6,12.55 6,12 C6,11.45 6.45,11 7,11 L17,11 C17.55,11 18,11.45 18,12 C18,12.55 17.55,13 17,13 Z M17,9 L7,9 C6.45,9 6,8.55 6,8 C6,7.45 6.45,7 7,7 L17,7 C17.55,7 18,7.45 18,8 C18,8.55 17.55,9 17,9 Z" id="Shape" fill="#FFFFFF" fill-rule="nonzero"></path>
    </g>
</svg> 