<svg width="331" height="332" viewBox="0 0 331 332" fill="none" xmlns="http://www.w3.org/2000/svg">
<path d="M135.267 1.93341C134.2 3.00008 133.667 9.53341 133.667 22.4667V41.4001L126.733 43.6667C122.867 45.0001 115.267 48.0667 109.933 50.7334L100.2 55.4001L86.6 41.9334C79.1333 34.4667 72.0667 28.3334 71 28.3334C68.3333 28.3334 28.3333 68.4668 28.3333 71.0001C28.3333 72.0668 34.4667 79.1334 41.9333 86.6001L55.4 100.2L50.7333 109.933C48.0667 115.267 45 122.867 43.6667 126.6L41.4 133.667H22.4667C9.53334 133.667 3 134.2 1.93334 135.267C-0.333329 137.533 -0.333329 193.8 1.93334 196.067C3 197.133 9.53334 197.667 22.4667 197.667H41.4L43.6667 204.6C45 208.467 48.0667 216.067 50.7333 221.4L55.4 231.133L41.9333 244.733C34.4667 252.2 28.3333 259.267 28.3333 260.333C28.3333 263 68.4667 303 71 303C72.0667 303 79.1333 296.867 86.6 289.4L100.2 275.933L109.933 280.6C115.267 283.267 122.867 286.333 126.733 287.667L133.667 289.933V308.867C133.667 321.8 134.2 328.333 135.267 329.4C137.533 331.667 193.8 331.667 196.067 329.4C197.133 328.333 197.667 321.8 197.667 308.867V289.933L204.733 287.533C208.467 286.333 216.067 283.267 221.533 280.733L231.4 276.067L244.867 289.533C252.333 297 259.267 303 260.333 303C263 303 303 262.867 303 260.333C303 259.267 296.867 252.2 289.4 244.733L275.933 231.133L280.6 221.4C283.267 216.067 286.333 208.467 287.667 204.6L289.933 197.667H308.867C321.8 197.667 328.333 197.133 329.4 196.067C330.6 194.867 331 186.333 331 165.667C331 145 330.6 136.467 329.4 135.267C328.333 134.2 321.8 133.667 308.867 133.667H289.933L287.667 126.6C286.333 122.867 283.267 115.267 280.6 109.933L275.933 100.2L289.4 86.6001C296.867 79.1334 303 72.0668 303 71.0001C303 68.3334 262.867 28.3334 260.333 28.3334C259.267 28.3334 252.333 34.3334 244.867 41.8001L231.4 55.2667L221.533 50.6001C216.067 48.0667 208.467 45.0001 204.733 43.8001L197.667 41.4001V22.4667C197.667 9.53341 197.133 3.00008 196.067 1.93341C193.8 -0.333253 137.533 -0.333253 135.267 1.93341ZM192.733 79.4001C220.867 88.4668 242.6 110.2 252.067 138.6C256.867 153.267 257.133 176.333 252.6 191C243.267 220.867 220.867 243.267 191 252.6C176.333 257.133 153.267 256.867 138.6 252.067C110.333 242.6 88.7333 221 79.2667 192.733C76.3333 183.8 75.8 180.067 75.8 165.667C75.8 151.267 76.3333 147.533 79.4 138.333C89.8 106.867 114.6 84.6001 147.667 76.8668C159.533 74.0668 179.8 75.2668 192.733 79.4001Z" fill="#FF8A24"/>
<path d="M150.333 87.0001C114.733 94.7335 88.3333 124.733 86.0666 160.467C84.4666 183.933 92.4666 204.733 109.533 221.667C121.133 233.267 131.4 239.133 146.467 243C194.2 255.267 242.067 220.2 245.267 170.867C247.667 135.133 226.067 102.733 191.267 90.0668C181.4 86.3335 160.2 84.7335 150.333 87.0001ZM181.533 98.3335C206.467 104.2 227.133 124.867 233 149.8C244.733 199.533 199.533 244.733 149.8 233C124.867 227.133 104.2 206.467 98.3333 181.533C86.6 131.8 131.8 86.6001 181.533 98.3335Z" fill="#FF8A24"/>
</svg>
