<svg width="128" height="128" viewBox="0 0 128 128" fill="none" xmlns="http://www.w3.org/2000/svg">
<g id="Edit / Show">
<g id="Vector">
<path d="M19.1296 73.487C28.6199 82.9218 45.1708 95.9996 64.001 95.9996C82.8311 95.9996 99.3789 82.9218 108.869 73.487C111.372 70.9987 112.628 69.7503 113.425 67.3073C113.993 65.5642 113.993 62.4359 113.425 60.6928C112.628 58.2496 111.372 57.0011 108.869 54.5126C99.3789 45.0778 82.8311 32 64.001 32C45.1708 32 28.6199 45.0778 19.1296 54.5126C16.6247 57.0028 15.3722 58.2488 14.5749 60.6928C14.0063 62.4359 14.0063 65.5642 14.5749 67.3073C15.3722 69.7513 16.6247 70.9968 19.1296 73.487Z" stroke="#B0B0B0" stroke-width="10.6667" stroke-linecap="round" stroke-linejoin="round"/>
<path d="M53.3333 64C53.3333 69.891 58.109 74.6667 64 74.6667C69.891 74.6667 74.6667 69.891 74.6667 64C74.6667 58.109 69.891 53.3333 64 53.3333C58.109 53.3333 53.3333 58.109 53.3333 64Z" stroke="#B0B0B0" stroke-width="10.6667" stroke-linecap="round" stroke-linejoin="round"/>
</g>
</g>
</svg>
