<svg width="128" height="128" viewBox="0 0 128 128" fill="none" xmlns="http://www.w3.org/2000/svg">
<g id="Interface / Trash_Empty">
<path id="Vector" d="M32 32V94.9333C32 100.907 32 103.892 33.1626 106.174C34.1852 108.181 35.8158 109.816 37.8229 110.839C40.1024 112 43.0879 112 49.0502 112H78.9498C84.912 112 87.8933 112 90.1728 110.839C92.1798 109.816 93.8159 108.181 94.8385 106.174C96 103.894 96 100.912 96 94.9498V32M32 32H42.6666M32 32H21.3333M42.6666 32H85.3333M42.6666 32C42.6666 27.03 42.6666 24.5462 43.4786 22.5859C44.5612 19.9723 46.6363 17.8946 49.25 16.812C51.2102 16 53.6966 16 58.6666 16H69.3333C74.3034 16 76.7884 16 78.7486 16.812C81.3622 17.8946 83.4382 19.9723 84.5208 22.5859C85.3328 24.5462 85.3333 27.03 85.3333 32M85.3333 32H96M96 32H106.667" stroke="#24FFD0" stroke-width="10.6667" stroke-linecap="round" stroke-linejoin="round"/>
</g>
</svg>
